<?xml version="1.0" encoding="UTF-8" standalone="no"?>
<!-- Created with Inkscape (http://www.inkscape.org/) -->

<svg
   xmlns:dc="http://purl.org/dc/elements/1.1/"
   xmlns:cc="http://creativecommons.org/ns#"
   xmlns:rdf="http://www.w3.org/1999/02/22-rdf-syntax-ns#"
   xmlns:svg="http://www.w3.org/2000/svg"
   xmlns="http://www.w3.org/2000/svg"
   xmlns:sodipodi="http://sodipodi.sourceforge.net/DTD/sodipodi-0.dtd"
   xmlns:inkscape="http://www.inkscape.org/namespaces/inkscape"
   width="210mm"
   height="297mm"
   viewBox="0 0 210 297"
   version="1.1"
   id="svg8"
   inkscape:version="0.92.3 (2405546, 2018-03-11)"
   sodipodi:docname="spirale.svg">
  <defs
     id="defs2" />
  <sodipodi:namedview
     id="base"
     pagecolor="#ffffff"
     bordercolor="#666666"
     borderopacity="1.0"
     inkscape:pageopacity="0.0"
     inkscape:pageshadow="2"
     inkscape:zoom="0.35"
     inkscape:cx="400"
     inkscape:cy="560"
     inkscape:document-units="mm"
     inkscape:current-layer="layer1"
     showgrid="false"
     inkscape:window-width="1853"
     inkscape:window-height="1025"
     inkscape:window-x="67"
     inkscape:window-y="27"
     inkscape:window-maximized="1" />
  <metadata
     id="metadata5">
    <rdf:RDF>
      <cc:Work
         rdf:about="">
        <dc:format>image/svg+xml</dc:format>
        <dc:type
           rdf:resource="http://purl.org/dc/dcmitype/StillImage" />
        <dc:title></dc:title>
      </cc:Work>
    </rdf:RDF>
  </metadata>
  <g>
    <path
       sodipodi:type="spiral"
       style="fill:none;fill-rule:evenodd;stroke:#000000;stroke-width:0.26458332"
       id="path31"
       sodipodi:cx="89.958336"
       sodipodi:cy="154.88095"
       sodipodi:expansion="1"
       sodipodi:revolution="3"
       sodipodi:radius="108.51275"
       sodipodi:argument="-17.131937"
       sodipodi:t0="0"
       d="m 89.958336,154.88095 c -0.795944,5.38212 -7.647681,1.58243 -8.945438,-1.32291 -3.516839,-7.8733 4.334291,-15.38681 11.591261,-16.56796 12.981021,-2.11281 23.430131,9.66716 24.190491,21.85961 1.11585,17.89289 -15.04097,31.6249 -32.127961,31.81301 -22.774268,0.25072 -39.878979,-20.42518 -39.435541,-42.39631 0.558022,-27.64842 25.813349,-48.16267 52.664658,-47.05806 32.520534,1.33782 56.463324,31.20354 54.680594,62.933 -2.10089,37.39208 -36.59497,64.77459 -73.201358,62.30312 C 37.111517,223.59104 6.2821053,184.45723 9.4493977,142.97475 13.048277,95.839704 56.82945,61.5585 103.18745,65.426575 c 52.00668,4.339396 89.74317,52.773325 85.1707,104.006405 -5.07631,56.87843 -58.16693,98.07279 -114.274755,92.79322" />
  </g>
</svg>
